<svg xmlns="http://www.w3.org/2000/svg" width="740" height="101" viewBox="0 0 740 101">
    <g fill="none" fill-opacity=".209" fill-rule="evenodd">
        <g fill="#000" fill-rule="nonzero" stroke="#FFF" stroke-width="2">
            <g>
                <path d="M555.746 288.482c3.199-.016 6.097-.783 8.694-2.298 2.598-1.515 4.612-3.614 6.042-6.298 1.43-2.683 2.145-5.718 2.145-9.104h0v-1.701c-.017-3.352-.757-6.378-2.22-9.079-1.465-2.7-3.5-4.79-6.106-6.272-2.606-1.481-5.543-2.222-8.809-2.222h0-11.906v36.974h12.16zm-.152-6.856h-3.097V258.39h2.995c2.623 0 4.62.906 5.991 2.717 1.37 1.812 2.056 4.503 2.056 8.076h0v1.6c0 3.589-.685 6.293-2.056 8.113-1.37 1.82-3.334 2.73-5.89 2.73h0zm38.283 7.364c3.148 0 5.953-.749 8.415-2.247 2.463-1.498 4.362-3.636 5.7-6.412 1.336-2.777 2.005-5.968 2.005-9.574h0v-1.701c-.017-3.556-.707-6.709-2.07-9.46-1.362-2.751-3.27-4.871-5.724-6.361-2.454-1.49-5.246-2.235-8.377-2.235-3.165 0-5.987.753-8.466 2.26-2.48 1.507-4.383 3.644-5.712 6.412-1.328 2.768-1.992 5.964-1.992 9.587h0v2.082c.067 3.488.782 6.577 2.145 9.27 1.362 2.691 3.262 4.76 5.699 6.208 2.437 1.448 5.23 2.171 8.377 2.171zm0-6.958c-2.37 0-4.155-.973-5.356-2.92-1.202-1.947-1.803-4.732-1.803-8.355h0l.026-2.717c.253-6.704 2.614-10.056 7.082-10.056 2.285 0 4.04.952 5.268 2.856 1.227 1.905 1.84 4.694 1.84 8.368h0v1.701c-.017 3.59-.635 6.34-1.853 8.254-1.219 1.913-2.953 2.87-5.204 2.87zm54.71 6.45v-13.28l11.905-23.694h-9.62l-6.804 16.05-6.829-16.05h-9.57l11.88 23.693v13.281h9.038zm30.54.508c3.148 0 5.953-.749 8.416-2.247 2.462-1.498 4.362-3.636 5.699-6.412 1.337-2.777 2.005-5.968 2.005-9.574h0v-1.701c-.017-3.556-.706-6.709-2.069-9.46-1.362-2.751-3.27-4.871-5.724-6.361-2.454-1.49-5.247-2.235-8.377-2.235-3.165 0-5.987.753-8.466 2.26-2.48 1.507-4.384 3.644-5.712 6.412-1.329 2.768-1.993 5.964-1.993 9.587h0v2.082c.068 3.488.783 6.577 2.145 9.27 1.362 2.691 3.262 4.76 5.7 6.208 2.436 1.448 5.229 2.171 8.376 2.171zm0-6.958c-2.369 0-4.154-.973-5.356-2.92s-1.802-4.732-1.802-8.355h0l.025-2.717c.254-6.704 2.615-10.056 7.083-10.056 2.284 0 4.04.952 5.267 2.856 1.227 1.905 1.84 4.694 1.84 8.368h0v1.701c-.016 3.59-.634 6.34-1.853 8.254-1.218 1.913-2.953 2.87-5.204 2.87zm36.684 6.958c2.979 0 5.56-.524 7.743-1.574 2.183-1.05 3.859-2.578 5.026-4.584 1.168-2.006 1.752-4.38 1.752-7.123h0v-24.201h-8.91v24.15c0 2.286-.474 3.936-1.422 4.952s-2.344 1.524-4.189 1.524c-3.655 0-5.534-2.023-5.635-6.07h0v-24.556h-8.961v24.379c.05 4.063 1.37 7.263 3.96 9.599 2.59 2.336 6.135 3.504 10.636 3.504zm50.851-.508l4.85-21.077 4.95 21.077h9.24l7.844-36.974h-8.834l-4.24 23.185-5.153-23.185h-7.565l-5.077 23.185-4.24-23.185h-8.859l7.87 36.974h9.214zm37.42 0l2.133-6.907h12.21l2.158 6.907h9.57l-13.657-36.974h-8.377l-13.556 36.974h9.52zm12.211-13.789h-7.946l3.96-12.824 3.986 12.824zm26.962 13.79v-23.008l13.098 23.007h8.86v-36.974h-8.885v23.007l-13.073-23.007h-8.91v36.974h8.91zm46.28 0V258.39h11.093v-6.882h-30.894v6.882h10.89v30.092h8.91zM370.8 349.492v-30.094h11.093v-6.881H351v6.881h10.89v30.093h8.91zm30.82.507c3.147 0 5.953-.75 8.415-2.247 2.462-1.499 4.362-3.636 5.699-6.413 1.337-2.776 2.005-5.967 2.005-9.573h0v-1.702c-.016-3.555-.706-6.708-2.068-9.46-1.363-2.75-3.27-4.87-5.725-6.36-2.454-1.49-5.246-2.235-8.377-2.235-3.165 0-5.987.753-8.466 2.26-2.48 1.507-4.383 3.644-5.712 6.412-1.328 2.768-1.993 5.963-1.993 9.586h0v2.083c.068 3.487.783 6.577 2.145 9.269 1.363 2.692 3.262 4.761 5.7 6.209 2.436 1.447 5.229 2.171 8.377 2.171zm0-6.958c-2.37 0-4.155-.974-5.357-2.92-1.201-1.947-1.802-4.732-1.802-8.355h0l.025-2.718c.254-6.704 2.615-10.056 7.083-10.056 2.285 0 4.04.952 5.267 2.857 1.227 1.905 1.84 4.694 1.84 8.368h0v1.701c-.016 3.59-.634 6.34-1.852 8.253-1.219 1.913-2.953 2.87-5.204 2.87zm61.081 6.45v-6.856h-15.51v-30.118h-8.91v36.974h24.42zm30.719 0v-6.856h-16.552v-8.812h14.013v-6.628h-14.013v-7.797h16.602v-6.881H467.96v36.974h25.462zm11.78 0l2.133-6.907h12.21l2.158 6.907h9.57l-13.657-36.974h-8.377l-13.556 36.974h9.52zm12.21-13.79h-7.945l3.96-12.823 3.986 12.824zm26.962 13.79V336.44h4.823l6.525 13.053h9.544v-.38l-7.717-14.907c2.217-1.05 3.846-2.421 4.887-4.114 1.04-1.693 1.561-3.827 1.561-6.4 0-3.555-1.235-6.306-3.706-8.253-2.47-1.947-5.898-2.92-10.281-2.92h0-14.546v36.974h8.91zm5.636-19.935h-5.636V319.4h5.636c1.675 0 2.945.453 3.808 1.36.863.905 1.294 2.153 1.294 3.745 0 1.591-.427 2.831-1.282 3.72-.854.889-2.128 1.333-3.82 1.333h0zm29.779 19.935v-23.007l13.099 23.007h8.86v-36.974h-8.885v23.007l-13.074-23.007h-8.91v36.974h8.91zm57.832.508c4.248 0 7.59-.923 10.027-2.768 2.437-1.845 3.656-4.385 3.656-7.618 0-4.047-1.997-7.22-5.991-9.523-1.642-.948-3.74-1.833-6.296-2.654-2.555-.821-4.34-1.617-5.356-2.387-1.015-.77-1.523-1.63-1.523-2.578 0-1.083.461-1.976 1.383-2.679.923-.703 2.18-1.054 3.77-1.054 1.574 0 2.822.415 3.744 1.245.923.83 1.384 1.997 1.384 3.504h8.885c0-2.252-.584-4.254-1.752-6.006-1.167-1.752-2.805-3.102-4.912-4.05-2.107-.948-4.489-1.422-7.146-1.422-2.725 0-5.178.436-7.362 1.307-2.183.872-3.87 2.091-5.064 3.657-1.193 1.566-1.79 3.374-1.79 5.422 0 4.114 2.395 7.348 7.184 9.7 1.473.729 3.368 1.482 5.687 2.26 2.318.78 3.939 1.533 4.861 2.261.922.728 1.384 1.744 1.384 3.047 0 1.152-.428 2.045-1.282 2.68-.855.634-2.019.952-3.49.952-2.303 0-3.965-.47-4.99-1.41-1.023-.94-1.535-2.4-1.535-4.38h0-8.936c0 2.438.614 4.592 1.84 6.463 1.228 1.87 3.055 3.343 5.484 4.418 2.429 1.075 5.14 1.613 8.136 1.613zm34.933 0c3.147 0 5.952-.75 8.415-2.247 2.462-1.499 4.362-3.636 5.699-6.413 1.337-2.776 2.005-5.967 2.005-9.573h0v-1.702c-.017-3.555-.706-6.708-2.069-9.46-1.362-2.75-3.27-4.87-5.724-6.36-2.454-1.49-5.246-2.235-8.377-2.235-3.165 0-5.987.753-8.466 2.26-2.48 1.507-4.384 3.644-5.712 6.412-1.329 2.768-1.993 5.963-1.993 9.586h0v2.083c.068 3.487.783 6.577 2.145 9.269 1.363 2.692 3.262 4.761 5.7 6.209 2.436 1.447 5.229 2.171 8.377 2.171zm0-6.958c-2.37 0-4.155-.974-5.357-2.92-1.201-1.947-1.802-4.732-1.802-8.355h0l.025-2.718c.254-6.704 2.615-10.056 7.083-10.056 2.284 0 4.04.952 5.267 2.857 1.227 1.905 1.84 4.694 1.84 8.368h0v1.701c-.016 3.59-.634 6.34-1.852 8.253-1.219 1.913-2.954 2.87-5.204 2.87zm31.124 6.45v-8.634l-.863-17.7 8.961 26.334h5.89l8.935-26.309-.863 17.675v8.634h8.936v-36.974h-11.728l-8.225 25.724-8.25-25.724h-11.703v36.974h8.91zm63.618 0v-6.856h-16.551v-8.812h14.013v-6.628h-14.013v-7.797h16.602v-6.881h-25.513v36.974h25.462zm23.56 0V319.4h11.093v-6.881h-30.894v6.881h10.89v30.093h8.91zm25.26 0v-15.44h13.125v15.44h8.86v-36.974h-8.86v14.678h-13.125v-14.678h-8.91v36.974h8.91zm38.614 0v-36.974h-8.885v36.974h8.885zm16.604 0v-23.007l13.099 23.007h8.86v-36.974h-8.886v23.007l-13.073-23.007h-8.91v36.974h8.91zm44.655.508c3.148 0 6.042-.466 8.682-1.397 2.64-.93 4.645-2.158 6.016-3.682h0v-15.186h-15.104v6.12h6.194v5.74c-1.134 1.032-2.86 1.548-5.179 1.548-2.708 0-4.692-.926-5.953-2.78-1.26-1.854-1.89-4.626-1.89-8.317h0v-2.235c.016-3.521.634-6.23 1.852-8.126 1.219-1.896 2.945-2.844 5.179-2.844 1.861 0 3.3.44 4.315 1.32 1.016.88 1.676 2.354 1.98 4.419h8.58c-.422-4.182-1.907-7.326-4.454-9.434-2.547-2.108-6.123-3.162-10.726-3.162-3.148 0-5.919.732-8.314 2.197-2.394 1.464-4.235 3.555-5.52 6.272-1.287 2.718-1.93 5.896-1.93 9.536h0l.025 3.2c.203 5.282 1.752 9.404 4.646 12.367 2.894 2.963 6.76 4.444 11.6 4.444zm44.733-.508v-23.007l13.099 23.007h8.86v-36.974h-8.885v23.007l-13.074-23.007h-8.91v36.974h8.91zm54.556 0v-6.856h-16.552v-8.812h14.013v-6.628h-14.013v-7.797h16.602v-6.881h-25.512v36.974h25.462zm19.955 0l4.848-21.077 4.95 21.077h9.24l7.845-36.974h-8.834l-4.24 23.185-5.153-23.185h-7.565l-5.077 23.185-4.24-23.185h-8.859l7.87 36.974h9.215zm45.06-11.707c.035-1.286.212-2.349.534-3.187.321-.838.897-1.655 1.726-2.45h0l2.92-2.718c1.235-1.202 2.132-2.378 2.69-3.53.559-1.15.838-2.429.838-3.834 0-3.217-1.037-5.697-3.11-7.44-2.073-1.744-4.996-2.616-8.77-2.616-3.791 0-6.736.943-8.835 2.831-2.098 1.888-3.164 4.525-3.198 7.91h8.58c.034-1.27.364-2.276.99-3.021.626-.745 1.447-1.118 2.463-1.118 2.2 0 3.3 1.278 3.3 3.835 0 1.05-.326 2.01-.978 2.882-.651.872-1.603 1.833-2.856 2.882-1.252 1.05-2.157 2.29-2.716 3.72-.558 1.431-.837 3.382-.837 5.854h7.26zm-3.553 12.012c1.354 0 2.483-.402 3.389-1.206.905-.805 1.358-1.833 1.358-3.086s-.453-2.281-1.358-3.085c-.906-.804-2.035-1.207-3.39-1.207-1.353 0-2.483.403-3.388 1.207-.906.804-1.358 1.832-1.358 3.085s.452 2.281 1.358 3.086c.905.804 2.035 1.206 3.389 1.206z" transform="translate(-350 -250)"/>
            </g>
        </g>
    </g>
</svg>
