<svg xmlns="http://www.w3.org/2000/svg" width="140" height="40" viewBox="0 0 140 40">
    <g fill="none" fill-rule="evenodd">
        <g fill="#FFF" fill-rule="nonzero">
            <g>
                <path d="M169.71 60c2.263 0 4.253-.384 5.97-1.152 1.718-.768 3.03-1.869 3.936-3.303.906-1.434 1.36-3.122 1.36-5.066V29.256h-6.256l-.246 1.916c-1.294-1.55-3.094-2.324-5.397-2.324-1.826 0-3.428.466-4.804 1.397-1.377.93-2.433 2.252-3.169 3.965-.736 1.713-1.104 3.683-1.104 5.912v.245c0 3.452.831 6.208 2.494 8.267 1.663 2.06 3.844 3.089 6.542 3.089 2.017 0 3.687-.727 5.009-2.182v.693c0 3.127-1.527 4.69-4.58 4.69-2.098 0-3.788-.755-5.07-2.263l-2.882 4.036c.804.979 1.966 1.774 3.486 2.386 1.52.611 3.09.917 4.712.917zm1.084-13.578c-1.226 0-2.18-.527-2.862-1.58-.681-1.053-1.022-2.484-1.022-4.292 0-2.08.348-3.666 1.043-4.76.695-1.094 1.656-1.641 2.882-1.641 1.472 0 2.542.503 3.21 1.508v9.277c-.681.992-1.765 1.488-3.25 1.488zm21.037 4.893V37.35c.614-1.36 2.004-2.04 4.17-2.04l2.27.164.123-6.381c-.545-.163-1.186-.245-1.922-.245-2.072 0-3.687 1.08-4.845 3.242l-.225-2.834h-6.46v22.059h6.89zm18.011.408c3.271 0 5.864-1.01 7.78-3.028 1.914-2.018 2.872-4.747 2.872-8.185v-.245c0-3.52-.954-6.303-2.863-8.349-1.908-2.045-4.518-3.068-7.83-3.068-2.167 0-4.054.462-5.663 1.386-1.608.925-2.841 2.246-3.7 3.966-.859 1.72-1.288 3.68-1.288 5.882l.02 1.162c.15 3.22 1.18 5.773 3.088 7.655 1.908 1.883 4.436 2.824 7.584 2.824zm0-5.301c-1.254 0-2.2-.476-2.841-1.427-.641-.952-.961-2.447-.961-4.485l.02-1.244c.191-3.411 1.438-5.117 3.741-5.117 2.535 0 3.803 1.977 3.803 5.933v.693c-.055 3.765-1.308 5.647-3.762 5.647zm23.245 4.893l3.68-13.089 3.66 13.089h5.826l5.213-22.06h-6.603l-2.229 13.008-3.475-13.007h-4.804l-3.517 13.313-2.187-13.313h-6.604l5.214 22.059h5.826zm28.928.408c1.35 0 2.644-.197 3.885-.592v-4.913c-.464.082-1.036.122-1.718.122-.886 0-1.479-.163-1.778-.489-.3-.326-.45-.904-.45-1.733V34.027h3.639v-4.771h-3.64v-5.484h-6.889v5.484h-2.821v4.77h2.821v10.949c0 2.27.566 3.961 1.697 5.076 1.131 1.114 2.883 1.672 5.254 1.672zm13.023-.408v-15.82c.586-.898 1.588-1.346 3.005-1.346 1.145 0 1.956.275 2.433.826.477.55.716 1.41.716 2.579v13.761h6.91V37.39c-.028-2.813-.661-4.94-1.902-6.38-1.24-1.442-3.08-2.162-5.52-2.162-2.29 0-4.17.924-5.642 2.773V20h-6.89v31.315h6.89zm21.16.224c1.09 0 1.996-.323 2.718-.968.723-.646 1.084-1.471 1.084-2.477 0-1.006-.361-1.832-1.084-2.477-.722-.646-1.628-.969-2.719-.969-1.104 0-2.013.327-2.729.979-.715.652-1.073 1.475-1.073 2.467s.358 1.814 1.073 2.467c.716.652 1.625.978 2.73.978z" transform="translate(-160 -20)"/>
            </g>
        </g>
    </g>
</svg>
